# File created by Blade
# Date/Time:  Wed Apr 08 14:55:03 2015
# Frame Rate: 120.000 fps
#------------------------------------------------------
:FULLY-SPECIFIED
:DEGREES
1625
root 0.544168 32.589122 -4.408813 -29.137676 42.014213 -20.439055
Spine 25.469480 -33.558864 4.417816
Head -2.277255 -3.675596 8.890384
LeftShoulder -9.898554 32.576708 24.781340
LeftArm 83.232875 -37.337588 -82.366883
LeftForeArm -3.197139 -0.000000 124.195834
LeftHand 9.396139 -0.000000 8.678795
LeftHandThumb1 -26.253704 0.000000 33.147579
RightShoulder -10.215113 -12.192807 -17.880633
RightArm 8.044017 0.202489 74.953737
RightForeArm 12.502951 -0.000000 122.610931
RightHand 5.592520 0.000000 4.454503
RightHandThumb1 -24.326973 -0.000000 -32.862282
LeftUpLeg 0.192207 -1.965427 8.013163
LeftLeg 24.172566 -0.000000 -0.000000
LeftFoot -9.731607 15.164617 -1.641909
LeftToeBase -12.072846 -0.000000 0.000000
RightUpLeg -71.290710 11.865163 6.936008
RightLeg 5.903405 -0.000000 -0.000000
RightFoot 44.709867 -11.350791 2.179988
RightToeBase 27.954239 -0.000000 -0.000000
1626
root 0.518494 32.607082 -4.420049 -28.339243 43.334576 -20.334627
Spine 23.708135 -33.351495 5.181119
Head -2.139939 -4.514708 8.571970
LeftShoulder -10.030765 32.625669 24.370635
LeftArm 80.785689 -37.453472 -80.939958
LeftForeArm -2.980955 -0.000000 124.911698
LeftHand 9.490634 -0.000000 9.034725
LeftHandThumb1 -26.253704 0.000000 33.147579
RightShoulder -10.311052 -12.444107 -17.840706
RightArm 7.895370 0.173782 75.282853
RightForeArm 12.365404 -0.000000 122.365754
RightHand 5.802994 0.000000 4.053047
RightHandThumb1 -24.326973 -0.000000 -32.862282
LeftUpLeg -0.554416 -2.662299 7.438162
LeftLeg 23.547127 -0.000000 -0.000000
LeftFoot -9.198275 14.926853 -1.684186
LeftToeBase -12.248741 -0.000000 0.000000
RightUpLeg -69.934905 12.104664 6.094791
RightLeg 6.891658 -0.000000 -0.000000
RightFoot 44.578098 -11.215013 2.738697
RightToeBase 28.212674 -0.000000 -0.000000
1627
root 0.489233 32.633559 -4.421737 -27.684481 44.372327 -20.327208
Spine 22.202987 -33.076108 5.866596
Head -2.003796 -5.098095 8.529690
LeftShoulder -10.589922 33.060954 23.737647
LeftArm 78.900664 -37.387988 -79.737112
LeftForeArm -2.558326 -0.000000 125.498136
LeftHand 9.515144 -0.000000 9.086666
LeftHandThumb1 -26.253704 0.000000 33.147579
RightShoulder -10.106557 -12.529043 -17.737401
RightArm 7.717240 0.206591 75.370546
RightForeArm 12.200374 0.000000 122.186276
RightHand 5.994007 -0.000000 3.668046
RightHandThumb1 -24.326973 -0.000000 -32.862282
LeftUpLeg -1.150729 -3.223144 7.086623
LeftLeg 22.904783 -0.000000 -0.000000
LeftFoot -8.694280 14.719896 -1.751599
LeftToeBase -12.311718 -0.000000 0.000000
RightUpLeg -68.486306 12.644265 5.414043
RightLeg 7.893913 -0.000000 -0.000000
RightFoot 44.644561 -11.284596 2.951516
RightToeBase 28.729122 -0.000000 -0.000000
1628
root 0.460927 32.664126 -4.414298 -27.223953 45.205132 -20.446843
Spine 20.871255 -32.595066 6.654010
Head -1.959276 -5.746460 8.473363
LeftShoulder -11.050592 33.354362 23.211542
LeftArm 76.889666 -37.264879 -78.586696
LeftForeArm -2.253510 -0.000000 126.092039
LeftHand 9.466296 -0.000000 8.985829
LeftHandThumb1 -26.253704 0.000000 33.147579
RightShoulder -9.999148 -12.445015 -17.683814
RightArm 7.473339 0.126907 75.424956
RightForeArm 12.057668 -0.000000 122.015160
RightHand 6.093698 -0.000000 3.298621
RightHandThumb1 -24.326973 -0.000000 -32.862282
LeftUpLeg -1.620237 -3.574223 6.941629
LeftLeg 22.324841 -0.000000 -0.000000
LeftFoot -8.249905 14.408157 -1.796517
LeftToeBase -12.483917 -0.000000 0.000000
RightUpLeg -66.961175 13.380072 4.848157
RightLeg 8.994922 -0.000000 -0.000000
RightFoot 44.716134 -11.511382 3.291057
RightToeBase 29.089687 -0.000000 -0.000000
1629
root 0.434817 32.686304 -4.406763 -26.648919 45.976936 -20.418731
Spine 19.567320 -31.969679 7.303232
Head -1.862800 -6.322163 8.509958
LeftShoulder -11.431750 33.568965 22.849482
LeftArm 74.695853 -37.085822 -77.388290
LeftForeArm -2.375092 -0.000000 126.647657
LeftHand 9.460453 0.000000 8.941547
LeftHandThumb1 -26.253704 0.000000 33.147579
RightShoulder -9.908230 -12.290923 -17.671150
RightArm 7.274870 -0.078386 75.445316
RightForeArm 11.739144 -0.000000 121.782567
RightHand 6.307864 -0.000000 2.876740
RightHandThumb1 -24.326973 -0.000000 -32.862282
LeftUpLeg -2.093254 -3.867734 6.715130
LeftLeg 21.772966 -0.000000 -0.000000
LeftFoot -7.858170 14.195251 -1.831634
LeftToeBase -12.574017 -0.000000 0.000000
RightUpLeg -65.564908 14.257247 4.150346
RightLeg 10.313869 -0.000000 -0.000000
RightFoot 44.663113 -11.528039 3.674806
RightToeBase 29.045827 -0.000000 -0.000000
